<?xml version="1.0" encoding="utf-8"?>
<!-- Generator: Adobe Illustrator 19.0.0, SVG Export Plug-In . SVG Version: 6.00 Build 0)  -->
<svg version="1.1" id="Layer_1" xmlns="http://www.w3.org/2000/svg" xmlns:xlink="http://www.w3.org/1999/xlink" x="0px" y="0px"
	 viewBox="-49 141 512 512" style="enable-background:new -49 141 512 512;" xml:space="preserve">
<style type="text/css">
	.st0{fill:#650676;}
</style>
<g>
	<g>
		<g>
			<path class="st0" d="M9.6,183.6l196.3,25.6c0.4,0,0.7,0.1,1.1,0.1s0.7,0,1.1-0.1l186.6-24.3v29.6c-5.4,6-17.1,21-17.1,37.5
				c0,18.8,15.3,25.6,25.6,25.6c10.3,0,25.6-6.8,25.6-25.6c0-16.4-11.7-31.4-17.1-37.5v-39.3c0-1.1-0.2-2.2-0.6-3.2
				c-0.1-0.4-0.4-0.6-0.6-0.9c-0.3-0.6-0.7-1.2-1.1-1.7c-0.3-0.3-0.7-0.5-1-0.8c-0.5-0.4-1-0.8-1.5-1c-0.4-0.2-0.9-0.3-1.3-0.4
				c-0.4-0.1-0.8-0.4-1.2-0.4l-196.3-25.6c-0.7-0.1-1.5-0.1-2.2,0L9.6,166.7c-4.3,0.6-7.4,4.2-7.4,8.5C2.2,179.4,5.4,183,9.6,183.6z
				 M411.8,251.9c0,6.8-4.6,8.4-8.5,8.5c-3.9-0.1-8.5-1.7-8.5-8.5c0-7.1,4.4-15,8.5-20.8C407.4,236.9,411.8,244.8,411.8,251.9z
				 M207,158.1l130.3,17l-130.3,17l-130.3-17L207,158.1z"/>
			<path class="st0" d="M258.2,397c17.2,0,31.4-12.9,33.7-29.5l31.2-23.4c3.8-2.8,4.5-8.2,1.7-11.9c-2.8-3.8-8.2-4.5-11.9-1.7
				l-21.8,16.3c-3.3-10.4-12.9-18-24.3-18h-34.1c-14.1,0-25.6,11.5-25.6,25.6c0-14.1-11.5-25.6-25.6-25.6h-34.1
				c-11.5,0-21.1,7.6-24.3,18l-21.8-16.3c-3.8-2.8-9.1-2.1-11.9,1.7c-2.8,3.8-2.1,9.1,1.7,11.9l31.2,23.4
				c2.3,16.6,16.4,29.5,33.7,29.5h17.1c18.8,0,34.1-15.3,34.1-34.1c0,18.8,15.3,34.1,34.1,34.1H258.2z M189.9,362.9
				c0,9.4-7.7,17.1-17.1,17.1h-17.1c-9.4,0-17.1-7.7-17.1-17.1v-8.5c0-4.7,3.8-8.5,8.5-8.5h34.1c4.7,0,8.5,3.8,8.5,8.5L189.9,362.9
				L189.9,362.9z M224.1,362.9v-8.5c0-4.7,3.8-8.5,8.5-8.5h34.1c4.7,0,8.5,3.8,8.5,8.5v8.5c0,9.4-7.7,17.1-17.1,17.1h-17.1
				C231.7,379.9,224.1,372.3,224.1,362.9z"/>
			<path class="st0" d="M343.2,574.1c-0.2-0.6-0.4-1.2-0.7-1.7c-0.2-0.3-0.2-0.6-0.4-0.9c-0.1-0.1-0.2-0.2-0.3-0.3
				c-0.4-0.5-0.8-0.9-1.3-1.2c-0.4-0.4-0.8-0.7-1.3-1c-0.1-0.1-0.2-0.2-0.4-0.3l-34.1-17.1c-2.7-1.4-6-1.2-8.6,0.5l-51.2,34.1
				c-2.4,1.6-3.8,4.3-3.8,7.1v30.3c-5.1,4.1-17.5,12.4-34.1,12.4c-16.4,0-29-8.4-34.1-12.4v-30.2c0-2.9-1.4-5.5-3.8-7.1L117.9,552
				c-2.5-1.7-5.8-1.9-8.6-0.5l-34.1,17.1c-0.2,0.1-0.2,0.2-0.4,0.3c-0.5,0.3-0.9,0.7-1.4,1.1c-0.4,0.4-0.9,0.7-1.2,1.2
				c-0.1,0.1-0.3,0.2-0.3,0.3c-0.2,0.3-0.2,0.7-0.4,1c-0.3,0.5-0.5,1.1-0.7,1.6c-0.1,0.5-0.2,1-0.2,1.6c0,0.5-0.1,1.1,0,1.6
				c0.1,0.6,0.3,1.1,0.5,1.7c0.1,0.3,0.1,0.7,0.3,1c0.1,0.2,0.2,0.2,0.3,0.4c0.3,0.5,0.7,0.9,1.1,1.3c0.4,0.4,0.7,0.9,1.2,1.2
				c0.1,0.1,0.2,0.3,0.3,0.4l51.2,34.1c1.5,1,3.1,1.4,4.7,1.4c2.8,0,5.5-1.3,7.1-3.8c2.6-3.9,1.6-9.2-2.4-11.8l-39-26l16.6-8.3
				l43.3,28.9v29.6c0,2.3,0.9,4.4,2.5,6c0.8,0.8,19.9,19.6,48.7,19.6s47.9-18.8,48.7-19.6c1.6-1.6,2.5-3.8,2.5-6v-29.6l43.3-28.9
				l16.5,8.3l-39,26c-3.9,2.6-5,7.9-2.4,11.8c1.6,2.5,4.4,3.8,7.1,3.8c1.6,0,3.3-0.5,4.7-1.4l51.2-34.1c0.1-0.1,0.2-0.2,0.3-0.3
				c0.5-0.4,0.9-0.8,1.3-1.3c0.4-0.4,0.7-0.8,1-1.3c0.1-0.2,0.2-0.2,0.3-0.4c0.2-0.3,0.2-0.7,0.3-1.1c0.2-0.5,0.4-1,0.4-1.6
				c0.1-0.6,0.1-1.1,0-1.7C343.3,575.1,343.3,574.6,343.2,574.1z"/>
			<path class="st0" d="M378.3,545.2c1.3,3.3,4.5,5.4,7.9,5.4c1.1,0,2.1-0.2,3.2-0.6c4.4-1.7,6.5-6.7,4.8-11.1
				c-0.2-0.4-16.5-41.7-16.5-82.2v-68.3c0-72.7-37.3-92.2-38.9-93c-2.6-1.3-5.8-1.2-8.3,0.4c-2.5,1.6-4.1,4.3-4.1,7.3v34.1
				c0,32.3-24.7,98.6-33.2,115.7c-7.7,15.3-48.2,63.5-86.2,63.5s-78.6-48.2-86.2-63.5c-8.5-17.1-33.2-83.4-33.2-115.7v-34.1
				c0-3-1.5-5.7-4.1-7.3c-2.5-1.6-5.7-1.7-8.3-0.4c-1.6,0.8-38.9,20.3-38.9,93v68.3c0,40.4-16.3,81.8-16.5,82.2
				c-1.7,4.4,0.4,9.3,4.8,11.1c4.4,1.7,9.3-0.4,11.1-4.7c0.7-1.8,17.7-44.7,17.7-88.5v-68.3c0-34.6,9-54.7,17.1-65.8v14.6
				c0,36.6,26.9,107,35,123.3c10.4,20.8,55.8,73,101.5,73s91.1-52.2,101.5-73c8.2-16.3,35-86.7,35-123.3v-14.5
				c8.1,11.1,17.1,31.2,17.1,65.7v68.3C360.6,500.5,377.6,543.4,378.3,545.2z"/>
			<path class="st0" d="M226.7,450.6c-0.3,0.2-6.7,6.1-19.7,6.1c-12.8,0-19.2-5.7-19.7-6.1c-3.3-3.3-8.7-3.2-12,0.1
				c-3.3,3.3-3.3,8.7,0,12.1c1.1,1.1,11.6,11,31.6,11s30.5-9.9,31.6-11c3.3-3.3,3.3-8.6,0.1-11.9
				C235.4,447.5,230.1,447.4,226.7,450.6z"/>
			<path class="st0" d="M462.6,641.8c-0.8-2.3-19.4-55.9-91.4-73.8c-4.6-1.2-9.2,1.6-10.3,6.2c-1.1,4.6,1.6,9.2,6.2,10.4
				c62.5,15.6,78.7,60.8,79.3,62.7c1.2,3.6,4.5,5.8,8.1,5.8c0.9,0,1.8-0.1,2.7-0.4C461.6,651.1,464.1,646.2,462.6,641.8z"/>
			<path class="st0" d="M343.5,269v-59.7c0-4.7-3.8-8.5-8.5-8.5s-8.5,3.8-8.5,8.5v54.2c-14.1,6-58.8,22.6-119.5,22.6
				s-105.4-16.6-119.5-22.6v-54.2c0-4.7-3.8-8.5-8.5-8.5s-8.5,3.8-8.5,8.5V269c0,3.2,1.8,6.2,4.7,7.6c2.2,1.1,53.9,26.5,131.8,26.5
				s129.6-25.4,131.8-26.5C341.7,275.2,343.5,272.2,343.5,269z"/>
			<path class="st0" d="M42.8,567.9c-72,18-90.6,71.6-91.4,73.8c-1.5,4.5,0.9,9.3,5.4,10.8c0.9,0.3,1.8,0.4,2.7,0.4
				c3.6,0,6.9-2.3,8.1-5.8c0.2-0.5,16.3-46.9,79.3-62.7c4.6-1.1,7.4-5.8,6.2-10.4C52,569.6,47.4,566.8,42.8,567.9z"/>
		</g>
	</g>
</g>
</svg>
