<?xml version="1.0" encoding="utf-8"?>
<!-- Generator: Adobe Illustrator 19.0.0, SVG Export Plug-In . SVG Version: 6.00 Build 0)  -->
<svg version="1.1" id="Layer_1" xmlns="http://www.w3.org/2000/svg" xmlns:xlink="http://www.w3.org/1999/xlink" x="0px" y="0px"
	 viewBox="-49 141 512 512" style="enable-background:new -49 141 512 512;" xml:space="preserve">
<style type="text/css">
	.st0{fill:#650676;}
</style>
<g>
	<g>
		<g>
			<path class="st0" d="M207,362.9c10.8,0,20.1-4,25.6-7c5.5,3,14.8,7,25.6,7c15.9,0,33.6-9,41.2-20.9c0.8-1.1,18.5-28.3,18.5-73
				c0-32.9-26.8-59.7-59.7-59.7c-9.7,0-18.4,3.5-25.6,7.3c-7.2-3.8-15.9-7.3-25.6-7.3c-32.9,0-59.7,26.8-59.7,59.7
				c0,50.6,15.7,70.2,19.1,73.9C174.1,352.6,190,362.9,207,362.9z M207,226.3c7.6,0,15.4,3.9,21.3,7.4c2.6,1.5,5.9,1.5,8.5,0
				c5.9-3.4,13.7-7.4,21.3-7.4c23.5,0,42.7,19.1,42.7,42.7c0,39.3-15.5,63.3-15.7,63.7c-4,6.2-16,13.1-26.9,13.1
				c-11,0-20.4-6.8-20.5-6.8c-1.5-1.1-3.3-1.7-5.1-1.7s-3.6,0.6-5.1,1.7c-0.1,0.1-9.5,6.8-20.5,6.8c-10.9,0-22.2-7.1-27.4-13.8
				c-0.2-0.2-0.5-0.5-0.7-0.8c-0.1-0.2-14.6-16-14.6-62.3C164.3,245.5,183.5,226.3,207,226.3z"/>
			<path class="st0" d="M225.3,196.6c1.6,2.7,4.4,4.1,7.3,4.1c1.5,0,3-0.4,4.4-1.2c4-2.4,5.4-7.7,2.9-11.7l-25.6-42.7
				c-2.4-4-7.7-5.4-11.7-2.9c-4,2.4-5.4,7.7-2.9,11.7L225.3,196.6z"/>
			<path class="st0" d="M251.9,195.4c0.6,0.2,6,1.9,13.2,1.9h0c10.2,0,19.1-3.5,25.6-10.1c15.6-15.6,8.4-38,8.1-38.9
				c-0.9-2.5-2.9-4.5-5.4-5.4c-0.6-0.2-6-1.9-13.3-1.9c-10.2,0-19.1,3.5-25.6,10c-15.6,15.6-8.4,38-8.1,38.9
				C247.4,192.5,249.4,194.5,251.9,195.4z M266.7,163.1c3.3-3.3,7.9-5,13.6-5c1.2,0,2.3,0.1,3.3,0.2c0.5,4.6,0.3,11.8-4.9,16.9
				c-3.3,3.3-7.9,5.1-13.6,5.1c-1.2,0-2.3-0.1-3.3-0.2C261.3,175.4,261.6,168.3,266.7,163.1z"/>
			<path class="st0" d="M437.4,379.9H27.8c-14.1,0-25.6,11.5-25.6,25.6v34.1c0,4.7,3.8,8.5,8.5,8.5s8.5-3.8,8.5-8.5v-34.1
				c0-4.7,3.8-8.5,8.5-8.5h25.6v42.7c0,4.7,3.8,8.5,8.5,8.5s8.5-3.8,8.5-8.5V397h221.9v42.7c0,4.7,3.8,8.5,8.5,8.5s8.5-3.8,8.5-8.5
				V397h85.3v42.7c0,4.7,3.8,8.5,8.5,8.5s8.5-3.8,8.5-8.5V397h25.6c4.7,0,8.5,3.8,8.5,8.5v59.7h-25.6c-4.7,0-8.5,3.8-8.5,8.5v76.8
				h-8.5c-4.7,0-8.5,3.8-8.5,8.5c0,4.7,3.8,8.5,8.5,8.5h25.6v59.7c0,4.7-3.8,8.5-8.5,8.5H155.8v-42.7c0-4.7-3.8-8.5-8.5-8.5
				s-8.5,3.8-8.5,8.5v42.7h-17.1v-42.7c0-4.7-3.8-8.5-8.5-8.5s-8.5,3.8-8.5,8.5v42.7H87.5v-42.7c0-4.7-3.8-8.5-8.5-8.5
				s-8.5,3.8-8.5,8.5v42.7H-6.3c-4.7,0-8.5-3.8-8.5-8.5v-34.1c0-4.7-3.8-8.5-8.5-8.5s-8.5,3.8-8.5,8.5v34.1
				c0,14.1,11.5,25.6,25.6,25.6h426.7c14.1,0,25.6-11.5,25.6-25.6v-59.7c0-11.1-8.8-17.1-17.1-17.1v-68.3h17.1
				c8.3,0,17.1-6,17.1-17.1v-59.7C463,391.4,451.5,379.9,437.4,379.9z"/>
			<path class="st0" d="M283.8,567.7c4.7,0,8.5-3.8,8.5-8.5s-3.8-8.5-8.5-8.5h-93.9v-68.3h119.5v128c0,3.1,1.7,6,4.5,7.5
				c2.8,1.5,6.1,1.3,8.8-0.4l20.9-13.9l20.9,13.9c1.4,1,3.1,1.4,4.7,1.4c1.4,0,2.8-0.3,4-1c2.8-1.5,4.5-4.4,4.5-7.5v-128h8.5
				c4.7,0,8.5-3.8,8.5-8.5s-3.8-8.5-8.5-8.5H-23.4c-14.4,0-25.6,11.2-25.6,25.6v51.2c0,14.1,11.5,25.6,25.6,25.6L283.8,567.7
				L283.8,567.7z M326.5,482.3h34.1v112.1l-12.3-8.2c-2.9-1.9-6.6-1.9-9.5,0l-12.3,8.2L326.5,482.3L326.5,482.3z M53.4,482.3h119.5
				v68.3H53.4V482.3z M-31.9,542.1v-51.2c0-4.9,3.7-8.5,8.5-8.5h59.7v68.3h-59.7C-28.2,550.6-31.9,546.9-31.9,542.1z"/>
			<path class="st0" d="M130.2,499.4c-4.7,0-8.5,3.8-8.5,8.5V525c0,4.7,3.8,8.5,8.5,8.5s8.5-3.8,8.5-8.5v-17.1
				C138.7,503.2,134.9,499.4,130.2,499.4z"/>
			<path class="st0" d="M96.1,499.4c-4.7,0-8.5,3.8-8.5,8.5V525c0,4.7,3.8,8.5,8.5,8.5s8.5-3.8,8.5-8.5v-17.1
				C104.6,503.2,100.8,499.4,96.1,499.4z"/>
		</g>
	</g>
</g>
</svg>
